<?xml version="1.0" encoding="UTF-8"?>
<!DOCTYPE svg PUBLIC "-//W3C//DTD SVG 1.1//EN" "http://www.w3.org/Graphics/SVG/1.1/DTD/svg11.dtd">
<svg xmlns="http://www.w3.org/2000/svg" version="1.1" width="50px" height="50px" style="shape-rendering:geometricPrecision; text-rendering:geometricPrecision; image-rendering:optimizeQuality; fill-rule:evenodd; clip-rule:evenodd" xmlns:xlink="http://www.w3.org/1999/xlink">
<g><path style="opacity:0.615" fill="#000000" d="M 17.5,1.5 C 41.1541,0.318958 50.6541,11.319 46,34.5C 38.7573,46.8068 28.2573,50.6402 14.5,46C 2.19317,38.7573 -1.64016,28.2573 3,14.5C 6.16246,8.16411 10.9958,3.83077 17.5,1.5 Z M 18.5,4.5 C 36.9488,3.44852 45.4488,12.1152 44,30.5C 38.1981,42.9824 28.6981,47.1491 15.5,43C 4.9871,36.4639 1.82043,27.2972 6,15.5C 9.1476,10.5094 13.3143,6.84275 18.5,4.5 Z"/></g>
<g><path style="opacity:0.692" fill="#000000" d="M 17.5,15.5 C 18.5,15.5 19.5,15.5 20.5,15.5C 20.3367,17.8568 20.5034,20.1902 21,22.5C 23.0726,17.7178 26.5726,15.5511 31.5,16C 28.9832,18.3494 26.6499,20.8494 24.5,23.5C 27.075,26.319 29.4083,29.319 31.5,32.5C 30.277,33.6139 28.9437,33.7805 27.5,33C 25.6667,30.5 23.8333,28 22,25.5C 20.6253,27.9368 20.1253,30.6035 20.5,33.5C 19.5,33.5 18.5,33.5 17.5,33.5C 17.5,27.5 17.5,21.5 17.5,15.5 Z"/></g>
</svg>
